<svg xmlns="http://www.w3.org/2000/svg" xmlns:xlink="http://www.w3.org/1999/xlink" width="500" zoomAndPan="magnify" viewBox="0 0 375 374.999991" height="500" preserveAspectRatio="xMidYMid meet" version="1.0"><defs><clipPath id="17d7dfdefa"><path d="M 57.945312 14.179688 L 316.695312 14.179688 L 316.695312 360.679688 L 57.945312 360.679688 Z M 57.945312 14.179688 " clip-rule="nonzero"/></clipPath></defs><g clip-path="url(#17d7dfdefa)"><path fill="#000000" d="M 189.425781 360.222656 L 119.980469 319.988281 L 119.6875 221.988281 L 57.90625 185.976562 L 57.90625 124.136719 L 246.992188 14.640625 L 316.476562 55.054688 L 316.65625 116.894531 L 254.878906 152.546875 L 255.386719 322.171875 Z M 194.371094 174.882812 L 194.84375 344.507812 L 244.484375 315.804688 L 244.011719 146.324219 L 305.792969 110.675781 L 305.792969 67.640625 L 132.554688 167.640625 L 132.554688 210.675781 Z M 130.84375 313.695312 L 183.941406 344.582031 L 183.539062 193.871094 L 130.589844 224.5 Z M 68.484375 179.71875 L 121.613281 210.640625 L 121.613281 167.640625 L 68.484375 136.757812 Z M 73.933594 127.410156 L 127.101562 158.328125 L 300.160156 58.292969 L 246.992188 27.261719 Z M 73.933594 127.410156 " fill-opacity="1" fill-rule="nonzero"/></g></svg>